name rise37.2698peak67.6939fall79.5734.mot
datacolumns 19
datarows 11
range 2.30165800000000 2.31832900000000
endheader
time	ground_force1_vx	ground_force1_vy	ground_force1_vz	ground_force1_px	ground_force1_py	ground_force1_pz	ground_force2_vx	ground_force2_vy	ground_force2_vz	ground_force2_px	ground_force2_py	ground_force2_pz	ground_torque1_x	ground_torque1_y	ground_torque1_z	ground_torque2_x	ground_torque2_y	ground_torque2_z	
2.30165800000000	-5.27241700000000	45.99840100000000	-12.50513200000000	0.33096000000000	0.00000000000000	0.09041700000000	-48.35840800000000	784.57426699999996	-51.61658800000000	0.13149400000000	0.00000000000000	-0.09520200000000	0.00000000000000	-8.76095500000000	0.00000000000000	0.00000000000000	-19.23772100000000	0.00000000000000	
2.30332600000000	-5.53983500000000	52.67499500000000	-13.71754800000000	0.33494300000000	0.00000000000000	0.09120000000000	-48.89555700000000	781.73813500000006	-51.19243100000000	0.13075600000000	0.00000000000000	-0.09509600000000	0.00000000000000	-9.70095900000000	0.00000000000000	0.00000000000000	-19.17167100000000	0.00000000000000	
2.30499700000000	-5.67588700000000	59.31179500000000	-14.76525600000000	0.33858400000000	0.00000000000000	0.09192900000000	-49.45509000000000	778.81860200000006	-50.75459100000000	0.13001500000000	0.00000000000000	-0.09498800000000	0.00000000000000	-10.53973300000000	0.00000000000000	0.00000000000000	-19.10999200000000	0.00000000000000	
2.30666400000000	-5.67264500000000	65.84379700000000	-15.62979400000000	0.34193200000000	0.00000000000000	0.09261300000000	-50.03662300000000	775.81456800000001	-50.30319100000000	0.12927000000000	0.00000000000000	-0.09487800000000	0.00000000000000	-11.26255100000000	0.00000000000000	0.00000000000000	-19.05265300000000	0.00000000000000	
2.30832700000000	-5.52808800000000	72.23065600000000	-16.30309100000000	0.34502600000000	0.00000000000000	0.09325500000000	-50.63966700000000	772.72480499999995	-49.83836400000000	0.12852200000000	0.00000000000000	-0.09476500000000	0.00000000000000	-11.86195400000000	0.00000000000000	0.00000000000000	-18.99960200000000	0.00000000000000	
2.30999400000000	-5.24549200000000	78.45621500000000	-16.78666200000000	0.34790100000000	0.00000000000000	0.09386200000000	-51.26362800000000	769.54795500000000	-49.36025000000000	0.12777200000000	0.00000000000000	-0.09465000000000	0.00000000000000	-12.33730900000000	0.00000000000000	0.00000000000000	-18.95076200000000	0.00000000000000	
2.31166100000000	-4.83249400000000	84.52612800000000	-17.09015800000000	0.35058400000000	0.00000000000000	0.09443600000000	-51.90780500000000	766.28253299999994	-48.86899600000000	0.12702100000000	0.00000000000000	-0.09453400000000	0.00000000000000	-12.69388900000000	0.00000000000000	0.00000000000000	-18.90603400000000	0.00000000000000	
2.31332800000000	-4.29995200000000	90.46409000000000	-17.22948700000000	0.35309700000000	0.00000000000000	0.09498100000000	-52.57139500000000	762.92693499999996	-48.36476100000000	0.12626800000000	0.00000000000000	-0.09441400000000	0.00000000000000	-12.94161600000000	0.00000000000000	0.00000000000000	-18.86529600000000	0.00000000000000	
2.31499200000000	-3.66075300000000	96.30723200000000	-17.22475700000000	0.35546000000000	0.00000000000000	0.09550000000000	-53.25348700000000	759.47943399999997	-47.84771100000000	0.12551400000000	0.00000000000000	-0.09429300000000	0.00000000000000	-13.09364300000000	0.00000000000000	0.00000000000000	-18.82840600000000	0.00000000000000	
2.31665800000000	-2.92865100000000	102.10121400000000	-17.09822600000000	0.35769100000000	0.00000000000000	0.09599400000000	-53.95306700000000	755.93819499999995	-47.31802500000000	0.12476000000000	0.00000000000000	-0.09417000000000	0.00000000000000	-13.16490800000000	0.00000000000000	0.00000000000000	-18.79519700000000	0.00000000000000	
2.31832900000000	-2.11724500000000	107.89546000000000	-16.87242200000000	0.35980200000000	0.00000000000000	0.09646700000000	-54.66901700000000	752.30127400000003	-46.77589100000000	0.12400700000000	0.00000000000000	-0.09404400000000	0.00000000000000	-13.17079800000000	0.00000000000000	0.00000000000000	-18.76548300000000	0.00000000000000	
